
<svg width="24px" height="17px" viewBox="0 0 24 17" version="1.1" xmlns="http://www.w3.org/2000/svg" xmlns:xlink="http://www.w3.org/1999/xlink">
    <g id="Page-4" stroke="none" stroke-width="1" fill="none" fill-rule="evenodd">
        <g id="Event-Card-Icons" transform="translate(-137.000000, -213.000000)" fill="#FFFFFE">
            <g id="Group" transform="translate(137.000000, 213.000000)">
                <path d="M23.1281492,9.69551718 C23.1009966,9.69551718 23.073539,9.69249264 23.0459797,9.6856092 L22.2460475,9.48932699 C22.0567932,9.44281166 21.9399458,9.24788528 21.9852,9.05379325 C22.0305559,8.85959693 22.2196068,8.73913681 22.4099797,8.78617362 L23.2099119,8.98245583 C23.3991661,9.02907546 23.5159119,9.22400184 23.4707593,9.41809387 C23.4319119,9.58402638 23.2876068,9.69551718 23.1281492,9.69551718" id="Fill-22"></path>
                <path d="M20.7774407,9.11894601 C20.7503898,9.11894601 20.7228305,9.11592147 20.6952712,9.10903804 L19.1445254,8.72878037 C18.9552712,8.68236933 18.8385254,8.48733865 18.883678,8.29324663 C18.9290339,8.09905031 19.1183898,7.97848589 19.3084576,8.02562699 L20.8592034,8.40588466 C21.0484576,8.45229571 21.1652034,8.64743067 21.1200508,8.8415227 C21.0812034,9.00745521 20.9368983,9.11894601 20.7774407,9.11894601 M20.6744237,11.9123693 C20.5544237,11.9123693 20.4373729,11.849584 20.3715763,11.7359031 C20.2717119,11.5645472 20.3265254,11.3426086 20.4938136,11.2405043 L21.863339,10.4034368 C22.0299153,10.3013325 22.2467288,10.3568172 22.3463898,10.5289031 C22.4461525,10.7001546 22.391339,10.9220933 22.2240508,11.0243018 L20.8546271,11.8613693 C20.7980847,11.8958908 20.7359492,11.9123693 20.6744237,11.9123693 M1.86961017,13.1310503 C1.74961017,13.1310503 1.63255932,13.0681607 1.56666102,12.9544798 C1.46689831,12.7831239 1.52171186,12.5612896 1.689,12.459081 L3.05842373,11.6220135 C3.22530508,11.5200135 3.44191525,11.5753939 3.54147458,11.7473755 C3.64133898,11.9188356 3.58652542,12.1407742 3.41923729,12.2427742 L2.04971186,13.079946 C1.99327119,13.1146761 1.9310339,13.1310503 1.86961017,13.1310503 M17.9352712,13.5871301 C17.8152712,13.5871301 17.6982203,13.5242405 17.632322,13.4107681 C17.5325593,13.2392037 17.5873729,13.0173693 17.7543559,12.9151607 L19.1238814,12.0778847 C19.2914746,11.9757804 19.5075763,12.0314736 19.6071356,12.203038 C19.707,12.3746025 19.6521864,12.5965411 19.4851017,12.6986454 L18.1155763,13.5360258 C18.0589322,13.5706515 17.9966949,13.5871301 17.9352712,13.5871301 M1.58201695,14.6846209 C1.5549661,14.6846209 1.52740678,14.6815963 1.49994915,14.6748172 L0.728694915,14.4855227 C0.0999152542,14.3314798 0.0319830508,13.9647804 0.0319830508,13.8143877 C0.0319830508,13.6877742 0.0753050847,13.5009828 0.282050847,13.3303571 C0.433779661,13.2050994 0.655169492,13.2298172 0.777711864,13.3853202 C0.864254237,13.4957681 0.877372881,13.6424061 0.823474576,13.7628663 C0.84340678,13.7694368 0.866389831,13.7760074 0.892525424,13.7823693 L1.66377966,13.9715595 C1.8530339,14.0182834 1.96988136,14.2131055 1.92462712,14.4071975 C1.88588136,14.5731301 1.74147458,14.6846209 1.58201695,14.6846209 M15.1958136,15.2614736 C15.0758136,15.2614736 14.9587627,15.1986883 14.8929661,15.0850074 C14.7931017,14.9137558 14.8479153,14.6918172 15.0152034,14.5896086 L16.3849322,13.7523325 C16.5517119,13.6501239 16.7684237,13.7057129 16.8679831,13.8776945 C16.9677458,14.0490503 16.9129322,14.2708847 16.7456441,14.3730933 L15.3760169,15.2103693 C15.3194746,15.2449951 15.257339,15.2614736 15.1958136,15.2614736 M4.68330508,15.4452405 C4.65625424,15.4452405 4.62869492,15.442216 4.60123729,15.4353325 L3.05049153,15.0550748 C2.86113559,15.0087681 2.74428814,14.8136331 2.78954237,14.6194368 C2.83469492,14.4253448 3.02445763,14.3046761 3.21422034,14.3519215 L4.7649661,14.7321791 C4.95432203,14.7785902 5.07116949,14.9737252 5.02591525,15.1678172 C4.98716949,15.3337497 4.84286441,15.4452405 4.68330508,15.4452405 M7.78489831,16.2060687 C7.75774576,16.2060687 7.73028814,16.2030442 7.70272881,16.1961607 L6.15198305,15.8156945 C5.96262712,15.7691791 5.84577966,15.5743571 5.8910339,15.3800564 C5.93638983,15.186173 6.12574576,15.0649828 6.31581356,15.1125411 L7.86655932,15.4930074 C8.05581356,15.539627 8.17266102,15.7345534 8.12740678,15.9286454 C8.08866102,16.0945779 7.94435593,16.2060687 7.78489831,16.2060687 M12.4515763,16.9262221 C12.3143898,16.9262221 12.1838136,16.8436209 12.1269661,16.7059521 C12.0507966,16.522081 12.1344915,16.3098417 12.313678,16.232038 C12.3456102,16.2180626 12.3754068,16.2030442 12.4020508,16.1868785 L13.6457797,15.4268847 C13.8123559,15.3247804 14.0292712,15.380265 14.1288305,15.5523509 C14.2286949,15.7237067 14.1735763,15.9455411 14.0064915,16.0477497 L12.7616441,16.8085779 C12.7085593,16.8408049 12.6513051,16.8704245 12.5888644,16.8975411 C12.5440169,16.9171485 12.4974407,16.9262221 12.4515763,16.9262221 M10.8863898,16.9666883 C10.859339,16.9666883 10.8317797,16.9636638 10.8042203,16.9567804 L9.25347458,16.5765227 C9.06411864,16.530216 8.94737288,16.335081 8.99252542,16.1408847 C9.03798305,15.9467926 9.22774576,15.8264368 9.41730508,15.8733693 L10.9680508,16.253627 C11.1574068,16.300038 11.2741525,16.495173 11.229,16.689265 C11.1902542,16.8551975 11.0458475,16.9666883 10.8863898,16.9666883" id="Fill-24"></path>
                <path d="M23.4172373,10.2314552 C23.3096441,10.2314552 23.2033729,10.181081 23.1344237,10.0857558 C23.0507288,9.97061472 23.0439153,9.82116074 23.1050339,9.70195215 C23.087339,9.69652883 23.0677119,9.69100123 23.0460508,9.68568221 C22.8566949,9.63927117 22.7399492,9.44424049 22.7851017,9.25004417 C22.8304576,9.05595215 23.0196102,8.93517914 23.2098814,8.98242454 C23.7339153,9.11101963 23.8642881,9.3911546 23.8955085,9.54686626 C23.9168644,9.65345521 23.933339,9.92639387 23.6274407,10.1598049 C23.5643898,10.2080933 23.4905593,10.2314552 23.4172373,10.2314552" id="Fill-26"></path>
                <path d="M13.0684881,10.5771288 C12.6933356,10.8065767 12.1468271,10.9333988 11.6141492,10.9333988 C11.3747593,10.9333988 11.1382169,10.9077423 10.9210983,10.8545521 L0.597844068,8.3223865 C0.524216949,8.30434356 0.45699661,8.28296319 0.392522034,8.26022699 L0.392522034,10.7669448 C0.392522034,10.7669448 0.407572881,10.9606196 0.670149153,11.0345644 C0.932725424,11.1085092 11.1398441,13.6120982 11.1398441,13.6120982 C11.1398441,13.6120982 11.9229966,13.850411 12.7127593,13.3676319 C13.502522,12.8848528 23.2333017,6.93881595 23.3606237,6.8585092 C23.4457424,6.80490184 23.5566915,6.73711043 23.5566915,6.56898773 L23.5566915,4.16583436 L13.0684881,10.5771288 Z" id="Fill-28"></path>
                <path d="M23.1338034,2.58495951 L12.8104475,0.0528981595 C12.3484475,-0.0603656442 11.7006508,0.0144134969 11.3630237,0.220603681 L0.589667797,6.80648712 C0.252142373,7.0127816 0.354447458,7.27164049 0.816447458,7.3848 L11.1398034,9.91706994 C11.6019051,10.0303337 12.2498034,9.9555546 12.5873288,9.74915583 L23.3604814,3.16348098 C23.6982102,2.95697791 23.5959051,2.69832761 23.1338034,2.58495951" id="Fill-30"></path>
            </g>
        </g>
    </g>
</svg>
