<svg width="24px" height="20px" viewBox="0 0 24 20" version="1.1" xmlns="http://www.w3.org/2000/svg" xmlns:xlink="http://www.w3.org/1999/xlink">
    <g id="Page-2" stroke="none" stroke-width="1" fill="none" fill-rule="evenodd">
        <g id="Event-Card-Icons" transform="translate(-139.000000, -230.000000)" fill="#FFFFFE">
            <g id="Group" transform="translate(139.000000, 230.000000)">
                <path d="M10.8969349,15.5849854 L12.4743807,11.9021561 L9.80112771,8.99776585 L11.0765012,6.04381463 L7.85211566,5.2746439 L7.61934458,3.5021561 L0.643633735,6.35630244 C0.141368675,6.56176585 -0.101233735,7.14049756 0.101754217,7.64898537 L4.74744096,19.2822537 C4.9505253,19.7907415 5.52228434,20.0363024 6.02464578,19.830839 L12.901947,16.9911317 L12.9158265,16.3456683 L10.8969349,15.5849854 Z" id="Fill-6"></path>
                <path d="M23.2258988,14.0919415 C23.7480193,13.9453073 24.0538506,13.3981854 23.9089831,12.8696976 L20.5948627,0.77857561 C20.4499952,0.250185366 19.9093687,-0.0593756098 19.3873446,0.0872585366 L13.0250313,1.87389268 L11.8857542,3.88413659 L13.3571759,6.24238049 L11.6405494,8.7496 L13.8477783,11.9270634 L11.6405494,15.2534049 L12.901947,16.991161 L23.2258988,14.0919415 Z" id="Fill-8"></path>
            </g>
        </g>
    </g>
</svg>
